<svg width="121" height="121" viewBox="0 0 121 121" fill="none" xmlns="http://www.w3.org/2000/svg">
<path fill-rule="evenodd" clip-rule="evenodd" d="M60.5 4.52331C29.5755 4.52331 4.50804 29.5808 4.50804 60.4929C4.50804 91.4051 29.5755 116.463 60.5 116.463C91.4245 116.463 116.492 91.4051 116.492 60.4929C116.475 29.5808 91.4074 4.52331 60.5 4.52331ZM38.4208 14.6794C36.2351 16.045 35.8765 17.1203 35.8424 19.4247C35.4667 44.943 35.8253 73.4484 35.7741 99.0179C35.6204 101.681 35.8082 104.122 37.7719 105.931C40.931 107.979 44.756 108.918 48.2224 110.13C50.7667 110.796 54.421 111.598 54.438 107.023C54.2673 76.8451 54.3697 48.1178 54.5064 17.9396C54.5234 14.1844 54.4551 10.3268 49.6568 11.112C46.4465 11.6582 41.1871 12.9555 38.4208 14.6794ZM63.3858 9.21732C59.6462 9.21732 57.9045 11.9313 57.7508 14.7477C57.3751 22.0192 57.6995 30.3318 57.5971 37.6203C57.5117 44.9088 57.6654 50.7294 57.6996 58.0008C57.7166 62.5412 64.6836 63.463 66.7156 63.7019C68.7647 63.9409 69.5673 64.7431 69.6527 65.8697C69.499 77.8864 69.8064 91.6099 69.7381 103.61C69.7381 104.651 68.7135 105.214 68.2012 105.282L59.9023 106.341C59.1168 106.443 58.2972 106.904 58.1777 107.57C58.0069 108.594 58.0069 109.771 58.2972 110.693C58.468 111.256 59.2022 111.632 59.8853 111.7C63.3175 111.973 69.0721 111.598 73.5802 110.54C76.6538 109.823 77.5759 106.784 77.5759 104.548C77.9174 91.4904 77.6442 78.3472 77.593 64.7602C77.5589 58.9055 72.5385 58.8031 69.6015 58.1033C66.6644 57.3864 65.6911 57.1986 65.3666 55.6624C65.0251 54.1262 65.1788 29.2565 65.3496 16.6253C65.3666 14.7477 67.6377 14.4063 70.7797 15.2769C71.7018 15.5329 74.0071 16.1132 74.0071 16.1132C76.8929 17.2739 76.8587 13.1262 75.4414 11.5046C74.8096 10.7877 72.419 10.2927 71.1554 10.0366C68.594 9.5075 66.1863 9.20025 63.3858 9.21732ZM82.0327 13.7065C78.9591 12.5629 77.6784 15.4988 77.6442 18.2469C77.593 32.1411 77.3539 43.2531 77.6272 57.3693C77.6954 60.8685 80.1885 62.3364 83.1427 62.9338C87.3434 63.8214 89.6998 64.2311 89.6998 65.8697C89.7169 75.3089 89.7511 83.6216 89.6828 93.6753C89.6657 96.4063 84.7649 98.0791 80.513 101.561C79.6933 102.244 79.625 103.644 79.6421 104.941C79.6592 106.784 80.735 108.15 82.3743 107.296C93.4224 101.8 97.4865 99.0691 97.6914 93.0608C97.8963 87.0525 97.7767 73.8239 97.5035 64.3506C97.8109 59.1957 91.9197 58.5129 88.1801 57.6765C86.2334 57.2327 85.3796 57.045 85.3113 55.0308C85.1747 45.0283 85.3796 36.4596 85.3625 26.4913C85.2601 25.1769 85.4479 22.8726 87.036 23.4359C88.6241 23.9992 92.3808 26.4571 94.4982 27.5496C95.1471 27.8909 95.7789 27.6861 96.0521 27.0887C96.496 26.167 96.5985 24.2381 95.4373 22.7531C92.7564 19.3734 86.5579 15.4134 82.0327 13.7065ZM100.355 29.137L100.441 27.3106C100.458 27.0033 106.998 36.0158 107.749 38.8664C107.698 42.8435 107.698 82.9559 107.595 83.1266C105.376 87.189 103.156 90.6541 100.492 93.7777C100.219 94.0679 100.594 37.5862 100.355 29.137ZM43.2704 22.6166C43.2533 19.9026 43.0655 18.8614 45.3537 18.2127C46.9076 17.7689 46.9929 18.6224 46.9929 19.7148C47.1637 46.2232 47.0612 72.6291 47.0612 99.1374C47.1295 101.373 47.0442 102.91 45.7123 102.637C44.9951 102.483 44.2949 102.107 43.7656 101.595C43.0996 100.964 43.2533 99.5641 43.2533 98.0962C43.185 72.7315 43.4924 47.9642 43.2704 22.6166ZM24.4356 39.02C24.4698 36.7669 24.4356 34.0529 22.3695 35.5891C20.6448 37.3472 20.5253 38.7127 20.1325 39.7369L19.9105 60.6466C19.9105 60.6978 20.6789 60.6807 21.5498 60.6466C22.933 60.5953 24.2137 60.6807 24.3161 58.4105C24.4015 56.1403 24.2137 45.6769 24.4356 39.02ZM27.3727 63.4971C33.9128 67.8839 30.822 88.6058 31.6417 102.21C29.2681 100.93 26.092 97.9084 24.3503 95.9796C23.8038 89.5104 25.9896 67.8497 21.4474 66.0745C21.0888 65.938 20.3374 65.9892 19.8935 66.0063C19.9788 73.8581 19.8081 82.6657 19.8935 90.5175C17.6736 87.5646 14.7024 81.7098 13.4558 78.296C13.6266 66.1428 12.8923 54.8431 13.49 42.724C15.1122 36.7498 20.0813 28.0616 26.2286 23.6578C28.4143 22.1386 30.4464 22.9921 30.9586 27.7032C32.154 37.9617 31.488 47.6058 31.5734 57.1645C31.6075 60.7319 29.8146 62.4047 27.3727 63.4971ZM60.5 0C27.0824 0 0 27.0716 0 60.4759C0 93.8801 27.0824 120.952 60.5 120.952C93.9176 120.952 121 93.8801 121 60.4759C121 27.0887 93.9176 0 60.5 0Z" fill="#FFCC00"/>
</svg>
